<mxfile host="app.diagrams.net" modified="2023-03-28T22:25:02.068Z" agent="Mozilla/5.0 (Windows NT 10.0; Win64; x64) AppleWebKit/537.36 (KHTML, like Gecko) Chrome/111.0.0.0 Safari/537.36" etag="zc_NyZ1yc-NfOiFGg9i9" version="21.1.1" type="device">
  <diagram name="Page-1" id="BNIe51euZn1jAffrEPn0">
    <mxGraphModel dx="1502" dy="721" grid="1" gridSize="10" guides="1" tooltips="1" connect="1" arrows="1" fold="1" page="1" pageScale="1" pageWidth="850" pageHeight="1100" math="0" shadow="0">
      <root>
        <mxCell id="0" />
        <mxCell id="1" parent="0" />
        <mxCell id="kppJfxN62hhdPr83Jw5t-9" value="Υπάλληλος &lt;br&gt;Τράπεζας" style="shape=umlActor;verticalLabelPosition=bottom;verticalAlign=top;html=1;outlineConnect=0;" parent="1" vertex="1">
          <mxGeometry x="80" y="135" width="30" height="60" as="geometry" />
        </mxCell>
        <mxCell id="kppJfxN62hhdPr83Jw5t-10" value="Φορολογούμενος" style="shape=umlActor;verticalLabelPosition=bottom;verticalAlign=top;html=1;outlineConnect=0;" parent="1" vertex="1">
          <mxGeometry x="80" y="40" width="30" height="60" as="geometry" />
        </mxCell>
        <mxCell id="kppJfxN62hhdPr83Jw5t-11" value="Ημερολόγιο&lt;br&gt;Συστήματος" style="shape=umlActor;verticalLabelPosition=bottom;verticalAlign=top;html=1;outlineConnect=0;" parent="1" vertex="1">
          <mxGeometry x="80" y="246" width="30" height="60" as="geometry" />
        </mxCell>
        <mxCell id="kppJfxN62hhdPr83Jw5t-13" value="Δήλωση τραπεζικών στοιχείων" style="ellipse;whiteSpace=wrap;html=1;" parent="1" vertex="1">
          <mxGeometry x="200" y="35" width="110" height="70" as="geometry" />
        </mxCell>
        <mxCell id="kppJfxN62hhdPr83Jw5t-14" value="" style="endArrow=none;html=1;rounded=0;entryX=0;entryY=0.5;entryDx=0;entryDy=0;" parent="1" target="kppJfxN62hhdPr83Jw5t-13" edge="1">
          <mxGeometry width="50" height="50" relative="1" as="geometry">
            <mxPoint x="105" y="70" as="sourcePoint" />
            <mxPoint x="180" y="30" as="targetPoint" />
          </mxGeometry>
        </mxCell>
        <mxCell id="kppJfxN62hhdPr83Jw5t-15" value="Δήλωση Δαπανών" style="ellipse;whiteSpace=wrap;html=1;" parent="1" vertex="1">
          <mxGeometry x="200" y="130" width="110" height="70" as="geometry" />
        </mxCell>
        <mxCell id="kppJfxN62hhdPr83Jw5t-16" value="" style="endArrow=none;html=1;rounded=0;entryX=0;entryY=0.5;entryDx=0;entryDy=0;" parent="1" target="kppJfxN62hhdPr83Jw5t-15" edge="1">
          <mxGeometry width="50" height="50" relative="1" as="geometry">
            <mxPoint x="105" y="165" as="sourcePoint" />
            <mxPoint x="180" y="125" as="targetPoint" />
          </mxGeometry>
        </mxCell>
        <mxCell id="kppJfxN62hhdPr83Jw5t-17" value="Υπολογισμός Επιδότησης" style="ellipse;whiteSpace=wrap;html=1;" parent="1" vertex="1">
          <mxGeometry x="200" y="241" width="110" height="70" as="geometry" />
        </mxCell>
        <mxCell id="kppJfxN62hhdPr83Jw5t-18" value="" style="endArrow=none;html=1;rounded=0;entryX=0;entryY=0.5;entryDx=0;entryDy=0;" parent="1" target="kppJfxN62hhdPr83Jw5t-17" edge="1">
          <mxGeometry width="50" height="50" relative="1" as="geometry">
            <mxPoint x="105" y="276" as="sourcePoint" />
            <mxPoint x="180" y="236" as="targetPoint" />
          </mxGeometry>
        </mxCell>
        <mxCell id="aAYpoyqwwGFAgzC3JPWN-1" value="Εξωτερικό &lt;br&gt;Σύστημα" style="shape=umlActor;verticalLabelPosition=bottom;verticalAlign=top;html=1;outlineConnect=0;" vertex="1" parent="1">
          <mxGeometry x="240" y="370" width="30" height="60" as="geometry" />
        </mxCell>
        <mxCell id="aAYpoyqwwGFAgzC3JPWN-2" value="ΑΑΔΕ" style="shape=umlActor;verticalLabelPosition=bottom;verticalAlign=top;html=1;outlineConnect=0;" vertex="1" parent="1">
          <mxGeometry x="395" y="246" width="30" height="60" as="geometry" />
        </mxCell>
        <mxCell id="aAYpoyqwwGFAgzC3JPWN-3" value="" style="endArrow=none;html=1;rounded=0;entryX=0;entryY=0.5;entryDx=0;entryDy=0;" edge="1" parent="1">
          <mxGeometry width="50" height="50" relative="1" as="geometry">
            <mxPoint x="310" y="275.5" as="sourcePoint" />
            <mxPoint x="405" y="275.5" as="targetPoint" />
          </mxGeometry>
        </mxCell>
        <mxCell id="aAYpoyqwwGFAgzC3JPWN-4" value="" style="endArrow=none;html=1;rounded=0;entryX=0.5;entryY=0;entryDx=0;entryDy=0;exitX=0.5;exitY=1;exitDx=0;exitDy=0;entryPerimeter=0;" edge="1" parent="1" source="kppJfxN62hhdPr83Jw5t-17" target="aAYpoyqwwGFAgzC3JPWN-1">
          <mxGeometry width="50" height="50" relative="1" as="geometry">
            <mxPoint x="290" y="360" as="sourcePoint" />
            <mxPoint x="385" y="360" as="targetPoint" />
          </mxGeometry>
        </mxCell>
      </root>
    </mxGraphModel>
  </diagram>
</mxfile>
